<svg width="20" height="10" viewBox="0 0 20 10" fill="none" xmlns="http://www.w3.org/2000/svg">
<path fill-rule="evenodd" clip-rule="evenodd" d="M4.94371 0H15.0567C17.7897 0 20 2.02938 20 4.88473C20 7.74192 17.7897 9.82143 15.0566 9.82143H4.94371C2.21165 9.82143 0 7.74192 0 4.88473C0 2.02938 2.21165 0 4.94371 0ZM7.26616 5.625C7.39192 5.625 7.5 5.50871 7.5 5.38826H7.50004V4.39969C7.50004 4.2792 7.39415 4.19643 7.26888 4.19643H5.71433V2.64451C5.71433 2.51875 5.59804 2.41067 5.47759 2.41067H4.48897C4.36848 2.41067 4.28571 2.51656 4.28571 2.64183V4.19638H2.70237C2.58562 4.19638 2.5 4.29205 2.5 4.40938V5.36594C2.5 5.48643 2.59067 5.625 2.71701 5.625H4.28567V7.20835C4.28567 7.32509 4.38134 7.41071 4.49866 7.41071H5.45522C5.57571 7.41071 5.71429 7.32004 5.71429 7.19371V5.625H7.26616ZM12.8467 5.78063C12.3674 5.78063 11.9783 5.39728 11.9783 4.92558C11.9783 4.45393 12.3674 4.06987 12.8467 4.06987C13.3281 4.06987 13.7171 4.45393 13.7171 4.92558C13.7171 5.39728 13.3281 5.78063 12.8467 5.78063ZM13.8778 6.7954C13.8778 7.26661 14.2669 7.64737 14.7462 7.64737C15.2276 7.64737 15.6166 7.26656 15.6166 6.7954C15.6166 6.32049 15.2275 5.94036 14.7462 5.94036C14.2669 5.94036 13.8778 6.32045 13.8778 6.7954ZM14.7462 3.91138C14.2669 3.91138 13.8778 3.52839 13.8778 3.05665C13.8778 2.58491 14.2669 2.20089 14.7462 2.20089C15.2275 2.20089 15.6166 2.58491 15.6166 3.05665C15.6166 3.52839 15.2276 3.91138 14.7462 3.91138ZM15.7777 4.92558C15.7777 5.39728 16.1667 5.78063 16.6456 5.78063C17.125 5.78063 17.514 5.39728 17.514 4.92558C17.514 4.45393 17.125 4.06987 16.6456 4.06987C16.1667 4.06987 15.7777 4.45393 15.7777 4.92558Z" fill="white"/>
</svg>
