<svg width="12" height="20" viewBox="0 0 12 20" fill="none" xmlns="http://www.w3.org/2000/svg">
<path fill-rule="evenodd" clip-rule="evenodd" d="M8.95302 2.49164C9.2 3.9311 8.37402 5.33914 6.99705 5.82597V8.00505H4.99789V5.82597C3.62093 5.33914 2.79495 3.9311 3.04192 2.49164C3.28889 1.05218 4.53698 0 5.99747 0C7.45797 0 8.70605 1.05218 8.95302 2.49164ZM4.99789 8.00505V14.0025H6.99705V8.00505H10.9954C11.5474 8.00505 11.9949 8.45258 11.9949 9.00463V19.0004C11.9949 19.5525 11.5474 20 10.9954 20H0.999579C0.447527 20 0 19.5525 0 19.0004V9.00463C0 8.45258 0.447527 8.00505 0.999579 8.00505H4.99789ZM4.99789 17.0013H2.99874V15.0021H4.99789V17.0013Z" fill="white"/>
</svg>
