<svg width="20" height="15" viewBox="0 0 20 15" fill="none" xmlns="http://www.w3.org/2000/svg">
<path fill-rule="evenodd" clip-rule="evenodd" d="M3.33358 0H16.6664C18.5073 0 19.9996 1.49233 19.9996 3.33321V10.5263C20.0204 11.9435 19.1714 13.229 17.8597 13.7662C16.6224 14.2684 15.2033 13.9495 14.2998 12.9662L11.4799 9.99963H8.52005L5.70016 12.9662C4.79569 13.9478 3.37776 14.2664 2.14029 13.7662C0.828643 13.229 -0.0203831 11.9435 0.00037215 10.5263V3.33321C0.00037215 1.49233 1.4927 0 3.33358 0ZM6.00015 5.99978H7.33343C7.70161 5.99978 8.00007 5.70131 8.00007 5.33313C8.00007 4.96496 7.70161 4.66649 7.33343 4.66649H6.00015V3.33321C6.00015 2.96503 5.70168 2.66657 5.33351 2.66657C4.96533 2.66657 4.66687 2.96503 4.66687 3.33321V4.66649H3.33358C2.96541 4.66649 2.66694 4.96496 2.66694 5.33313C2.66694 5.70131 2.96541 5.99978 3.33358 5.99978H4.66687V7.33306C4.66687 7.70124 4.96533 7.9997 5.33351 7.9997C5.70168 7.9997 6.00015 7.70124 6.00015 7.33306V5.99978ZM14.6665 7.9997C13.1938 7.9997 11.9999 6.80584 11.9999 5.33313C11.9999 3.86043 13.1938 2.66657 14.6665 2.66657C16.1392 2.66657 17.3331 3.86043 17.3331 5.33313C17.3331 6.04035 17.0521 6.7186 16.552 7.21868C16.052 7.71876 15.3737 7.9997 14.6665 7.9997ZM14.6665 6.66642C15.4028 6.66642 15.9998 6.06949 15.9998 5.33313C15.9998 4.59678 15.4028 3.99985 14.6665 3.99985C13.9301 3.99985 13.3332 4.59678 13.3332 5.33313C13.3332 6.06949 13.9301 6.66642 14.6665 6.66642Z" fill="white"/>
</svg>
